<svg xmlns="http://www.w3.org/2000/svg" viewBox="0 0 36 36" fill="none">
  <!-- Soft wobbly circular background badge -->
  <path
    d="M 18 2 C 27 1.8 34 8.5 33.8 18 C 34 27.5 27 34.2 18 34 C 9 34.2 2 27.5 2.2 18 C 1.8 8.5 9 2 18 2 Z"
    fill="#fcfbf7"
    stroke="#4a3f3b"
    stroke-width="2.5"
  />

  <g transform="translate(2, 0)">
    <!-- Left Bracket < -->
    <path
      d="M 12 9 C 9 13 6 16 4 19 C 6 22 9 25 12 29"
      stroke="#597c56"
      stroke-width="3.2"
      stroke-linecap="round"
      stroke-linejoin="round"
    />

    <!-- Diagonal Slash / -->
    <path
      d="M 19 7 C 18 15 16 23 14 31"
      stroke="#c07c65"
      stroke-width="3.2"
      stroke-linecap="round"
    />

    <!-- Right Bracket > -->
    <path
      d="M 21 9 C 24 13 27 16 29 19 C 27 22 24 25 21 29"
      stroke="#597c56"
      stroke-width="3.2"
      stroke-linecap="round"
      stroke-linejoin="round"
    />
  </g>
</svg>